<?xml version="1.0" encoding="UTF-8" standalone="no"?>
<!-- Created with Inkscape (http://www.inkscape.org/) -->

<svg
   width="5760"
   height="3240"
   viewBox="0 0 1524 857.25"
   version="1.1"
   id="svg4467"
   inkscape:version="1.2.2 (732a01da63, 2022-12-09)"
   sodipodi:docname="TOSWall.svg"
   xml:space="preserve"
   inkscape:export-filename="TOSWall.png"
   inkscape:export-xdpi="96"
   inkscape:export-ydpi="96"
   xmlns:inkscape="http://www.inkscape.org/namespaces/inkscape"
   xmlns:sodipodi="http://sodipodi.sourceforge.net/DTD/sodipodi-0.dtd"
   xmlns="http://www.w3.org/2000/svg"
   xmlns:svg="http://www.w3.org/2000/svg"><sodipodi:namedview
     id="namedview4469"
     pagecolor="#ffffff"
     bordercolor="#999999"
     borderopacity="1"
     inkscape:showpageshadow="0"
     inkscape:pageopacity="0"
     inkscape:pagecheckerboard="0"
     inkscape:deskcolor="#d1d1d1"
     inkscape:document-units="mm"
     showgrid="false"
     inkscape:zoom="0.092314643"
     inkscape:cx="352.05682"
     inkscape:cy="1874.0256"
     inkscape:window-width="1920"
     inkscape:window-height="1009"
     inkscape:window-x="1912"
     inkscape:window-y="-8"
     inkscape:window-maximized="1"
     inkscape:current-layer="layer1" /><defs
     id="defs4464"><inkscape:perspective
       sodipodi:type="inkscape:persp3d"
       inkscape:vp_x="0 : 428.625 : 1"
       inkscape:vp_y="0 : 1000 : 0"
       inkscape:vp_z="1524 : 428.625 : 1"
       inkscape:persp3d-origin="762 : 285.75 : 1"
       id="perspective6299" /></defs><g
     inkscape:label="BG"
     inkscape:groupmode="layer"
     id="layer1"
     style="fill:#24273a;stroke:none;fill-opacity:1"><rect
       style="fill:#24273a;fill-opacity:1;stroke:none;stroke-width:0.264583"
       id="rect6353"
       width="1549.6047"
       height="890.84418"
       x="-11.474961"
       y="-11.239635"
       ry="0"
       rx="0"
       inkscape:label="background" /></g><g
     inkscape:groupmode="layer"
     id="layer2"
     inkscape:label="Logo"><g
       id="layer1-4"
       transform="translate(670.98759,285.75)"><rect
         style="fill:#ffffff;fill-opacity:0;stroke:none;stroke-width:4.26605;stroke-dasharray:none"
         id="rect47"
         width="285.75"
         height="285.75"
         x="-51.862587"
         y="0" /><g
         id="g47"
         transform="matrix(1.2904649,0,0,1.2904649,182.29828,238.51885)"><path
           d="m -74.175793,-145.04607 -37.629647,21.72532 a 2.2913627,2.2913627 90.000242 0 0 -2e-5,3.96875 l 37.629683,21.725759 a 6.8739581,6.8739581 179.99986 0 0 6.874048,-1.7e-5 l 37.629186,-21.725722 a 2.2913894,2.2913894 89.999758 0 0 -1.6e-5,-3.96879 l -37.629154,-21.72528 a 6.8740921,6.8740921 1.4438715e-4 0 0 -6.87408,-2e-5 z"
           style="fill:#7dc4e4;fill-opacity:1;stroke:none;stroke-width:1.05833"
           id="path39" /><path
           d="m -119.21176,-112.42944 v 43.451098 a 6.8741068,6.8741068 60.000109 0 0 3.43703,5.953138 l 37.630715,21.726294 a 2.2913488,2.2913488 150.00011 0 0 3.437031,-1.984362 v -43.452127 a 6.8739692,6.8739692 59.999612 0 0 -3.437065,-5.953078 l -37.630641,-21.725383 a 2.2913947,2.2913947 149.99961 0 0 -3.43707,1.98442 z"
           style="fill:#8aadf4;fill-opacity:1;stroke-width:1.05833"
           id="path37" /><path
           d="m -25.702789,-114.41386 -37.630661,21.725383 a 6.873968,6.873968 120.00039 0 0 -3.437065,5.953078 v 43.452127 a 2.2913492,2.2913492 29.999895 0 0 3.437031,1.984362 l 37.630729,-21.726294 a 6.8741057,6.8741057 119.9999 0 0 3.437031,-5.953138 v -43.451098 a 2.2913951,2.2913951 30.000392 0 0 -3.437065,-1.98442 z"
           style="fill:#8aadf4;fill-opacity:1;stroke-width:1.05833"
           id="path38" /></g><text
         xml:space="preserve"
         style="font-style:normal;font-variant:normal;font-weight:normal;font-stretch:normal;font-size:52.9167px;font-family:'Nunito ExtraLight';-inkscape-font-specification:'Nunito ExtraLight, ';fill:#cad3f5;fill-opacity:1;stroke:none;stroke-width:5.34964;stroke-dasharray:none"
         x="3.1444182"
         y="235.06728"
         id="text41"><tspan
           id="tspan41"
           style="font-style:normal;font-variant:normal;font-weight:normal;font-stretch:normal;font-size:52.9167px;font-family:'Varela Round';-inkscape-font-specification:'Varela Round';fill:#cad3f5;fill-opacity:1;stroke-width:5.34964"
           x="3.1444182"
           y="235.06728"><tspan
   style="fill:#cad3f5;fill-opacity:1"
   id="tspan2">Tile</tspan> <tspan
   style="font-size:52.9167px;fill:#cad3f5;fill-opacity:1"
   id="tspan1">OS</tspan></tspan></text></g><path
       style="fill:#ffffff;fill-opacity:0;stroke-width:7.65975"
       d="m 1437.4943,3234.3283 c 790.6218,-1.0753 2086.651,-1.0753 2880.0648,-1e-4 793.4139,1.0753 146.5414,1.955 -1437.4943,1.9551 -1584.0356,0 -2233.19238,-0.8797 -1442.5705,-1.955 z"
       id="path3813"
       transform="scale(0.26458333)" /></g></svg>
